<?xml version="1.0" ?><svg viewBox="0 0 64 64" xmlns="http://www.w3.org/2000/svg"><defs><style>.cls-1{fill:#fff;}.cls-2{fill:#808285;}.cls-3{fill:#c31e31;}</style></defs><title/><g data-name="4-pinterest" id="_4-pinterest"><rect class="cls-1" height="64" rx="11.2" ry="11.2" width="64"/><path class="cls-2" d="M52.8,1.07A10.14,10.14,0,0,1,62.93,11.2V52.8A10.14,10.14,0,0,1,52.8,62.93H11.2A10.14,10.14,0,0,1,1.07,52.8V11.2A10.14,10.14,0,0,1,11.2,1.07H52.8M52.8,0H11.2A11.19,11.19,0,0,0,0,11.2V52.8A11.19,11.19,0,0,0,11.2,64H52.8A11.19,11.19,0,0,0,64,52.8V11.2A11.19,11.19,0,0,0,52.8,0Z"/><circle class="cls-3" cx="32" cy="32" r="27.2"/><path class="cls-1" d="M37.9,16.13c-6.95-2.61-15.1,0-19.82,6.41A16.31,16.31,0,0,0,14.74,33c.2,3.87,1.59,9.22,6.06,10.14l1.1-3.29c-4.3-5.46-4-10.39-.6-14.94,3-4.05,9.16-5.93,15.5-4.12,5.6,1.6,7.25,7.81,7.19,11.13-.1,5.59-2.35,10.48-5,11.37-5.72,1.91-8.89-1.61-9-1.79l-.16-.16C31,36.22,32,31.12,31.6,30c0,0-.8-4.8-4.8-2.4s-1.6,7.2-1.6,7.2L21.6,53.6l.86,3.88c.66.24,1.33.46,2,.65L26.8,53.2s1-4.25,2-8.4c-.08.32,2.9,2,3.22,2.15a10.58,10.58,0,0,0,8.21.15c4.67-1.56,8.43-8.19,8.56-15.09C48.93,24.56,45,18.77,37.9,16.13Z"/></g></svg>