<?xml version="1.0" ?><svg viewBox="0 0 64 64" xmlns="http://www.w3.org/2000/svg"><defs><style>.cls-1{fill:#fff;}.cls-2{fill:#808285;}.cls-3{fill:#e65149;}.cls-4{fill:#d2453d;}</style></defs><title/><g data-name="15-google-plus" id="_15-google-plus"><rect class="cls-1" height="64" rx="11.2" ry="11.2" width="64"/><path class="cls-2" d="M52.8,1.07A10.14,10.14,0,0,1,62.93,11.2V52.8A10.14,10.14,0,0,1,52.8,62.93H11.2A10.14,10.14,0,0,1,1.07,52.8V11.2A10.14,10.14,0,0,1,11.2,1.07H52.8M52.8,0H11.2A11.19,11.19,0,0,0,0,11.2V52.8A11.19,11.19,0,0,0,11.2,64H52.8A11.19,11.19,0,0,0,64,52.8V11.2A11.19,11.19,0,0,0,52.8,0Z"/><circle class="cls-3" cx="32" cy="32" r="24"/><polygon class="cls-4" points="46 29.2 49.6 29.2 46 25.6 46 29.2"/><path class="cls-4" d="M49.6,29.2v3.2H46V36H42.8V32.4H39.2V29.83L32.35,23l-3.07,3.69A6.38,6.38,0,0,0,25.2,25.2c-3.85,0-5.6,3.32-5.6,6.4,0,3.64,2.2,6,5.6,6A6.26,6.26,0,0,0,31.1,34H26V29.2H36.4v2.4A10.89,10.89,0,0,1,25.2,42.4,10.52,10.52,0,0,1,19.81,41h0L34.68,55.85A24,24,0,0,0,55.76,35.36Z"/><path class="cls-1" d="M26,34h5.1a6.26,6.26,0,0,1-5.9,3.6c-3.4,0-5.6-2.36-5.6-6,0-3.08,1.75-6.4,5.6-6.4a6.38,6.38,0,0,1,4.08,1.47L32.35,23A11.24,11.24,0,0,0,25.2,20.4c-5.93,0-10.4,4.81-10.4,11.2s4.37,10.8,10.4,10.8A10.89,10.89,0,0,0,36.4,31.6V29.2H26Z"/><polygon class="cls-1" points="49.6 29.2 46 29.2 46 25.6 42.8 25.6 42.8 29.2 39.2 29.2 39.2 32.4 42.8 32.4 42.8 36 46 36 46 32.4 49.6 32.4 49.6 29.2"/></g></svg>