<?xml version="1.0" ?><svg viewBox="0 0 64 64" xmlns="http://www.w3.org/2000/svg" xmlns:xlink="http://www.w3.org/1999/xlink"><defs><style>.cls-1{fill:#fff;}.cls-2{fill:#808285;}.cls-3{fill:url(#linear-gradient);}</style><linearGradient gradientUnits="userSpaceOnUse" id="linear-gradient" x1="44.9" x2="10.5" y1="13.67" y2="57.67"><stop offset="0" stop-color="#00c7f9"/><stop offset="1" stop-color="#0070fb"/></linearGradient></defs><title/><g data-name="8-messenger" id="_8-messenger"><rect class="cls-1" height="64" rx="11.2" ry="11.2" width="64"/><path class="cls-2" d="M52.8,1.07A10.14,10.14,0,0,1,62.93,11.2V52.8A10.14,10.14,0,0,1,52.8,62.93H11.2A10.14,10.14,0,0,1,1.07,52.8V11.2A10.14,10.14,0,0,1,11.2,1.07H52.8M52.8,0H11.2A11.19,11.19,0,0,0,0,11.2V52.8A11.19,11.19,0,0,0,11.2,64H52.8A11.19,11.19,0,0,0,64,52.8V11.2A11.19,11.19,0,0,0,52.8,0Z"/><path class="cls-3" d="M32,7.92c-13.37,0-24.21,10-24.21,22.25a21.63,21.63,0,0,0,9.42,17.61v8.3l8.08-4.54a25.93,25.93,0,0,0,6.71.87c13.37,0,24.21-10,24.21-22.24S45.37,7.92,32,7.92Z"/><polygon class="cls-1" points="16.61 37.68 29.41 24.08 35.81 30.48 47.41 24.08 35.01 37.68 28.35 31.35 16.61 37.68"/></g></svg>